<svg xmlns="http://www.w3.org/2000/svg" version="1.1" xmlns:xlink="http://www.w3.org/1999/xlink" xmlns:svgjs="http://svgjs.dev/svgjs" width="1000" height="1000" viewBox="0 0 1000 1000"><rect width="1000" height="1000" fill="#ffffff"></rect><g transform="matrix(0.7,0,0,0.7,149.57575757575756,376.8878007740234)"><svg viewBox="0 0 396 140" data-background-color="#8b3c7f" preserveAspectRatio="xMidYMid meet" height="353" width="1000" xmlns="http://www.w3.org/2000/svg" xmlns:xlink="http://www.w3.org/1999/xlink"><g id="tight-bounds" transform="matrix(1,0,0,1,0.2400000000000091,-0.24804576431921532)"><svg viewBox="0 0 395.52 140.49609152863843" height="140.49609152863843" width="395.52"><g><svg viewBox="0 0 688.1151671574682 244.43135999999998" height="140.49609152863843" width="395.52"><g transform="matrix(1,0,0,1,0,20.206566075949354)"><svg viewBox="0 0 395.52 204.01822784810128" height="204.01822784810128" width="395.52"><g id="textblocktransform"><svg viewBox="0 0 395.52 204.01822784810128" height="204.01822784810128" width="395.52" id="textblock"><g><svg viewBox="0 0 395.52 204.01822784810128" height="204.01822784810128" width="395.52"><g transform="matrix(1,0,0,1,0,0)"><svg width="395.52" viewBox="3.8499999046325684 -32.599998474121094 63.20000457763672 32.599998474121094" height="204.01822784810128" data-palette-color="#ffffff"><path d="M10.45 0L3.85 0 3.85-32.6 11.9-32.6 17.15-18.1Q17.65-16.65 18.1-15.13 18.55-13.6 19.05-12.1L19.05-12.1 19.25-12.1Q19.75-13.6 20.18-15.13 20.6-16.65 21.1-18.1L21.1-18.1 26.25-32.6 34.25-32.6 34.25 0 27.55 0 27.55-11.95Q27.55-13.15 27.65-14.6 27.75-16.05 27.9-17.53 28.05-19 28.2-20.43 28.35-21.85 28.5-23.05L28.5-23.05 28.3-23.05 25.65-15.3 21-2.85 16.95-2.85 12.3-15.3 9.7-23.05 9.5-23.05Q9.65-21.85 9.8-20.43 9.95-19 10.1-17.53 10.25-16.05 10.35-14.6 10.45-13.15 10.45-11.95L10.45-11.95 10.45 0ZM49.6-16.5L49.6-16.5 48.8-13.5 55.75-13.5 55-16.5Q54.3-18.95 53.65-21.7 53-24.45 52.35-27L52.35-27 52.15-27Q51.55-24.4 50.92-21.68 50.3-18.95 49.6-16.5ZM45.3 0L37.8 0 48-32.6 56.85-32.6 67.05 0 59.25 0 57.25-7.75 47.3-7.75 45.3 0Z" opacity="1" transform="matrix(1,0,0,1,0,0)" fill="#000000" class="wordmark-text-0" data-fill-palette-color="primary" id="text-0"></path></svg></g></svg></g></svg></g></svg></g><g transform="matrix(1,0,0,1,443.6838071574683,0)"><svg viewBox="0 0 244.43135999999998 244.43135999999998" height="244.43135999999998" width="244.43135999999998"><g data-palette-color="#ffffff"><rect width="66.8112384" height="244.43135999999998" fill="#000000" stroke="transparent" data-fill-palette-color="accent" x="0" fill-opacity="1"></rect><rect width="66.8112384" height="244.43135999999998" fill="#000000" stroke="transparent" data-fill-palette-color="accent" x="81.47711999999999" fill-opacity="0.75"></rect><rect width="66.8112384" height="244.43135999999998" fill="#000000" stroke="transparent" data-fill-palette-color="accent" x="162.95423999999997" fill-opacity="0.5"></rect></g></svg></g></svg></g><defs></defs></svg><rect width="395.52" height="140.49609152863843" fill="none" stroke="none" visibility="hidden"></rect></g></svg></g></svg>